<svg xmlns="http://www.w3.org/2000/svg" width="220.727" height="42.39" viewBox="0 0 220.727 42.39">
  <g id="Pnp_logo" data-name="Pnp logo" transform="translate(-307.559 -97.753)">
    <path id="Path_1" data-name="Path 1" d="M333.724,113.321c0,3.355-1.041,4.237-3.186,4.237h-8.372v-8.473h8.372c2.146,0,3.186.883,3.186,4.236m6.874,0c0-5.162-1.561-8.178-4.383-9.3a13.544,13.544,0,0,0-4.861-.573H316.736a1.388,1.388,0,0,0-1.386,1.388V129.91a1.391,1.391,0,0,0,1.386,1.39h4.038a1.394,1.394,0,0,0,1.391-1.39V123.2h9.189a13.516,13.516,0,0,0,4.861-.574c2.822-1.121,4.383-4.141,4.383-9.3m6.2-12.024v32.15a3.554,3.554,0,0,1-3.545,3.545H311.1a3.553,3.553,0,0,1-3.545-3.545V101.3a3.554,3.554,0,0,1,3.545-3.543H343.25a3.554,3.554,0,0,1,3.545,3.543m10.907,7.8a1.388,1.388,0,0,0-1.389-1.386h-4.039a1.388,1.388,0,0,0-1.386,1.386v20.815a1.392,1.392,0,0,0,1.386,1.39h4.039a1.392,1.392,0,0,0,1.389-1.39Zm13.74,3.971a41.131,41.131,0,0,1,5.239.269c1.058.093,1.419-.281,1.419-1.182v-2.582a1.449,1.449,0,0,0-1.288-1.607,21.749,21.749,0,0,0-5.37-.535c-9.229.041-9.791,8.508-9.927,10.089a24.354,24.354,0,0,0,0,4.011c.113,1.584.7,10.048,9.927,10.089a22.377,22.377,0,0,0,5.37-.534,1.442,1.442,0,0,0,1.288-1.611V126.9c0-.982-.469-1.294-1.524-1.176a43.424,43.424,0,0,1-5.133.266c-2.135-.074-3.213-1.294-3.431-4.611a28.276,28.276,0,0,1,0-3.692c.222-3.317,1.3-4.522,3.431-4.613m29.705,18.234H396.02a2.2,2.2,0,0,1-1.713-1.035l-5.823-7.924v7.531a1.458,1.458,0,0,1-1.448,1.428h-3.918a1.455,1.455,0,0,1-1.444-1.428v-28.6a1.418,1.418,0,0,1,1.444-1.389h3.918a1.42,1.42,0,0,1,1.448,1.389v15.09l6.441-7.962a1.676,1.676,0,0,1,1.433-.688h4.59c1.037,0,1.566.677.828,1.7l-8.128,9.559,8.3,10.867c.674.93.08,1.468-.806,1.468" transform="translate(0 0)" fill="#00294b"/>
    <path id="Path_2" data-name="Path 2" d="M417.662,115.826v14.1a1.39,1.39,0,0,1-1.388,1.388h-4.026a1.388,1.388,0,0,1-1.388-1.388V116.038c0-1.769-.237-2.844-3.658-2.844a19.95,19.95,0,0,0-3.957.414v16.311a1.392,1.392,0,0,1-1.387,1.389h-4.041a1.39,1.39,0,0,1-1.385-1.389V110.159a1.319,1.319,0,0,1,.972-1.443,35.481,35.481,0,0,1,9.36-1.308c8.122,0,10.9,3.064,10.9,8.418m97.417,13.6c0,7.353-3.023,10.715-10.751,10.715a25.208,25.208,0,0,1-7.382-.976,1.454,1.454,0,0,1-1.226-1.524v-2.317a1.064,1.064,0,0,1,1.349-1.162,36.545,36.545,0,0,0,6.839.65c3.762,0,4.351-.914,4.351-3.9a25.289,25.289,0,0,1-4.33.431c-6.924,0-9.71-2.241-9.71-8.445V109.07a1.391,1.391,0,0,1,1.387-1.39h4.024a1.39,1.39,0,0,1,1.388,1.39V123c0,2.223,1.2,3.081,3.948,3.081a14.087,14.087,0,0,0,3.3-.492l0-16.522a1.393,1.393,0,0,1,1.389-1.39h4.041a1.393,1.393,0,0,1,1.387,1.39Zm-59.6-6.807a13.476,13.476,0,0,1-4.864.577h-9.19v6.711a1.393,1.393,0,0,1-1.386,1.391h-4.041a1.392,1.392,0,0,1-1.388-1.391V104.832a1.388,1.388,0,0,1,1.388-1.388h14.617a13.586,13.586,0,0,1,4.864.573c2.819,1.126,4.382,4.142,4.382,9.3s-1.563,8.183-4.382,9.3m7.032-24.868H430.358a3.555,3.555,0,0,0-3.545,3.545v32.149a3.554,3.554,0,0,0,3.545,3.545h32.147a3.554,3.554,0,0,0,3.545-3.545V101.3a3.555,3.555,0,0,0-3.545-3.545m-12.71,11.33h-8.376v8.476h8.376c2.144,0,3.187-.884,3.187-4.238s-1.043-4.237-3.187-4.237m33.362,17.229c-.523.092-2.518.2-3.252.2-2.605,0-3.639-.827-3.639-2.937,0-1.841,1.263-2.518,2.811-2.747a22.441,22.441,0,0,1,4.08-.053Zm-3.016-18.936a28.337,28.337,0,0,0-6.959.832c-.881.235-1.232.709-1.232,1.415v2.333c0,.989.587,1.406,1.559,1.268a42.833,42.833,0,0,1,6.053-.521c3.109,0,3.6.861,3.6,2.54v.942a32.445,32.445,0,0,0-7.141.348c-3.8.774-6.166,2.991-6.166,7.558,0,5.253,3.024,7.487,9.915,7.476a44.554,44.554,0,0,0,8.813-.7,1.687,1.687,0,0,0,1.186-1.757V115.615c0-4.446-.789-8.239-9.624-8.239" transform="translate(13.207)" fill="#ad0529"/>
  </g>
</svg>
